<svg width="561" height="361" viewBox="0 0 561 361" fill="none" xmlns="http://www.w3.org/2000/svg">
<path d="M17.5252 17.134L153.473 153.554C157.369 157.463 163.696 157.477 167.609 153.585L194.9 126.441C198.867 122.495 198.825 116.062 194.805 112.168L125.847 45.3688C123.911 43.4931 125.238 40.214 127.934 40.214H433.244C435.922 40.214 437.259 43.4566 435.358 45.3432L118.27 360.075H199.9L543.419 17.1524C549.727 10.8553 545.267 0.0751953 536.354 0.0751953H24.6085C15.7078 0.0751953 11.2424 10.8294 17.5252 17.134Z" fill="#C7FE01"/>
<circle cx="339.673" cy="300.562" r="39.6831" fill="#EA0700"/>
<circle cx="223.842" cy="179.075" r="39.6831" fill="#EA0700"/>
<path fill-rule="evenodd" clip-rule="evenodd" d="M254.066 167.743C260.105 184.629 251.659 203.368 234.848 209.956C218.037 216.545 199.108 208.533 192.066 192.039C192.18 192.359 192.3 192.677 192.424 192.995C199.137 210.124 218.464 218.568 235.592 211.855C252.721 205.143 261.165 185.816 254.452 168.687C254.328 168.369 254.199 168.054 254.066 167.743Z" fill="white"/>
<path fill-rule="evenodd" clip-rule="evenodd" d="M308.39 313.839C301.676 297.209 309.7 277.983 326.662 270.52C343.625 263.056 363.221 270.129 370.947 286.313C370.82 285.999 370.687 285.685 370.55 285.373C363.14 268.534 343.124 261.048 325.841 268.653C308.559 276.257 300.555 296.073 307.964 312.912C308.102 313.224 308.243 313.533 308.39 313.839Z" fill="white"/>
<path d="M101.94 92.3135L161.563 152.406C160.102 153.856 157.742 153.846 156.293 152.385L99.2952 94.938L101.94 92.3135Z" fill="white"/>
<path d="M189.305 357.324L411.76 135.452C413.214 136.909 413.212 139.268 411.756 140.722L194.752 357.324L189.305 357.324Z" fill="white"/>
</svg>
